<svg>
   <path style="fill:#996b2b;fill-opacity:1;stroke-width:0.35277781" d="m 94.881436,158.67264 c -2.00293,-0.47455 -3.60153,-2.56073 -3.60153,-4.70003 0,-0.55139 -0.30247,-0.97447 -0.88714,-1.24086 -1.9137,-0.87194 -1.90238,-4.02429 0.0162,-4.50583 0.58003,-0.14557 0.8689,-0.54972 1.03829,-1.45262 0.50599,-2.69716 3.44804,-5.9041 6.76027,-7.36892 5.610364,-2.48117 12.916744,-1.54933 17.036724,2.17283 1.6343,1.47648 3.01313,3.6488 3.35203,5.28102 0.12952,0.62376 0.5465,1.21031 1.00317,1.41111 1.85658,0.81636 1.93229,3.6204 0.12005,4.44611 -0.65645,0.2991 -0.91174,0.76703 -1.09872,2.0139 -0.30465,2.03152 -1.95469,3.73136 -3.94055,4.05948 -1.89992,0.31391 -18.391934,0.21713 -19.798784,-0.11619 z" id="path4750" inkscape:connector-curvature="0" />
</svg>
