<svg>
   <path style="fill:#a80a0f;fill-opacity:1;stroke-width:0.35277775" d="m 99.292292,165.21592 c -0.81956,-0.81955 -0.88577,-1.08563 -0.68031,-2.73403 0.12518,-1.00436 0.4897,-2.87031 0.81003,-4.14656 0.54287,-2.16284 0.54218,-2.48633 -0.0101,-4.7625 -0.84185,-3.46937 -0.75583,-6.25591 0.29221,-9.46649 0.485608,-1.48762 1.109118,-3.0557 1.385588,-3.48461 0.77237,-1.19826 1.34149,-5.07792 1.07796,-7.34849 l -0.23565,-2.03039 1.28884,-0.24179 c 1.68504,-0.31612 4.43465,0.004 4.77572,0.55569 0.14778,0.2391 0.1288,0.94135 -0.0422,1.56055 -0.42656,1.54489 0.14785,5.7454 1.01925,7.45349 2.14789,4.2102 2.74195,8.89622 1.66215,13.1111 -0.54444,2.12518 -0.53609,2.23592 0.55281,7.32667 0.5083,2.37632 0.38897,3.32706 -0.53334,4.24937 -0.83441,0.83441 -1.04032,0.8659 -5.66048,0.8659 -4.68041,0 -4.81619,-0.0216 -5.702478,-0.90791 z" id="path4573" inkscape:connector-curvature="0" />
</svg>
