<svg>
   <path style="fill:#ffc700;fill-opacity:1;stroke-width:0.35277778" d="m 97.967385,163.82875 c -0.1866,-0.24255 -0.52983,-2.26661 -0.762734,-4.49793 -0.232903,-2.23132 -0.566995,-5.24757 -0.742426,-6.70278 -0.175432,-1.45521 -0.49624,-4.31271 -0.712906,-6.35 -0.216666,-2.03729 -0.514718,-4.69297 -0.662337,-5.90152 -0.169603,-1.38852 -0.135779,-2.32997 0.09189,-2.55764 0.208734,-0.20873 2.315367,-0.36028 5.008128,-0.36028 h 4.64785 l 0.21625,-1.08123 c 0.2939,-1.4695 1.92443,-3.01263 3.68386,-3.4864 3.48115,-0.93737 6.90929,2.37898 6.18787,5.98609 -0.26718,1.3359 -2.62073,3.8732 -3.59271,3.8732 -0.55929,0 -0.7077,0.49738 -1.07895,3.61598 -0.70447,5.9176 -1.02029,8.68623 -1.47888,12.96458 -0.23918,2.23132 -0.58754,4.25538 -0.77414,4.49793 -0.24122,0.31352 -1.69062,0.44096 -5.01538,0.44096 -3.324757,0 -4.774157,-0.12744 -5.015383,-0.44096 z" />
</svg>
