<svg>
   <path style="fill:#8fd123;fill-opacity:1;stroke-width:0.35277778" d="m 102.27249,165.18687 c -0.52497,-0.27692 -1.2736,-0.95165 -1.66363,-1.4994 -0.760398,-1.06789 -2.599808,-4.93912 -3.035678,-6.38894 -0.14583,-0.48507 -0.79661,-1.71519 -1.44617,-2.73361 -1.30537,-2.04662 -2.64513,-5.06168 -3.33131,-7.49694 -1.04122,-3.69531 -1.01437,-4.48885 0.20071,-5.93289 0.50551,-0.60077 0.88194,-1.49329 0.88194,-2.09109 0,-3.5052 2.83946,-6.62504 6.845598,-7.52157 1.58739,-0.35524 2.04046,-0.33095 3.08667,0.16551 1.13032,0.53637 1.33228,0.53754 2.58316,0.0149 1.83211,-0.7655 3.49435,-0.42336 4.49075,0.92434 0.42652,0.57689 1.5768,1.41598 2.55618,1.86465 4.05101,1.85581 5.54444,7.13564 3.78064,13.366 -0.89506,3.16168 -1.79294,4.9144 -3.35536,6.54989 -0.61271,0.64137 -1.07868,1.23501 -1.03548,1.31921 0.1954,0.38086 -1.98809,5.79225 -2.99119,7.41314 -0.48735,0.78749 -1.35393,1.7003 -1.92573,2.02847 -1.26297,0.72484 -4.28315,0.73466 -5.6411,0.0183 z" />
</svg>
