<svg>
   <path style="fill:#592792;fill-opacity:1;stroke-width:0.35277778" d="m 99.109659,157.89453 c -0.12935,-0.12935 -0.23518,-0.50902 -0.23518,-0.8437 0,-0.36009 -0.37202,-0.70189 -0.91126,-0.83723 -3.81922,-0.95856 -8.31243,-6.54801 -8.8392,-10.99574 l -0.21237,-1.79312 3.27172,-0.23224 c 1.79944,-0.12773 5.8446,-0.23223 8.989231,-0.23223 h 5.71751 l 3.6651,-1.20495 c 6.6004,-2.16997 9.83168,-3.07437 10.19092,-2.85235 0.54394,0.33617 0.41917,1.16318 -0.23032,1.52665 -0.3658,0.20471 -0.49754,0.55108 -0.35294,0.92792 0.17713,0.46157 -0.0865,0.72588 -1.13453,1.13757 l -1.36527,0.53629 -0.20267,1.96367 c -0.42526,4.12035 -3.8669,8.85654 -7.85469,10.80917 -1.34971,0.66089 -1.91179,1.14035 -1.91179,1.63079 v 0.69469 h -4.17454 c -2.29599,0 -4.280371,-0.10584 -4.409721,-0.23519 z" />
</svg>
